<?xml version="1.0" encoding="utf-8"?>
<!-- Generator: Adobe Illustrator 19.1.0, SVG Export Plug-In . SVG Version: 6.00 Build 0)  -->
<svg version="1.1" id="Layer_1" xmlns="http://www.w3.org/2000/svg" xmlns:xlink="http://www.w3.org/1999/xlink" x="0px" y="0px"
	 viewBox="-141.7 38.3 283.5 64.8" style="enable-background:new -141.7 38.3 283.5 64.8;" xml:space="preserve">
<style type="text/css">
	.st0{fill:#BFBFBF;}
</style>
<path class="st0" d="M-92.7,38.3H-64v64.8L-92.7,38.3z M-113,38.3h-28.8v64.8L-113,38.3z M-102.9,62.2l18.2,40.9h-12.1l-5.3-13
	h-13.4L-102.9,62.2z M-24.3,78l-4.9,13.4c0,0.4-0.4,0.4-0.4,0.4H-34c-0.4,0-0.4-0.4-0.4-0.4c4-10.1,10.5-27.9,15-39.3
	c0.4-0.4,0.4-1.2,0.4-2.8c0-0.4,0-0.4,0.4-0.4h6.5c0.4,0,0.4,0,0.4,0.4C-6.5,63-1.2,77.6,4,91.4c0,0.4,0,0.4-0.4,0.4h-5.3
	c-0.4,0-0.4,0-0.4-0.4l-5.3-13.8C-7.3,77.6-24.3,78-24.3,78z M-8.9,73.2c-1.6-4-5.3-15.4-6.9-19.8c-1.2,4-4.5,12.6-6.5,19.8H-8.9z
	 M6.9,76.4c0-9.7,7.3-16.6,17.8-16.6c2,0,3.6,0,5.3,0.8v-15c0-0.4,0-0.4,0.4-0.4h5.3c0.4,0,0.4,0,0.4,0.4V89c0,0.4,0,0.4-0.4,0.8
	c-4,2-8.1,3.2-12.1,3.2C13.8,92.6,6.9,86.9,6.9,76.4z M30,65.1c-1.2-0.8-3.2-0.8-5.3-0.8C17.4,64.3,13,69.1,13,76
	c0,8.9,5.3,11.7,10.9,11.7c2.4,0,4.5-0.4,5.7-0.8C29.6,86.9,30,65.1,30,65.1z M73.3,76c0,9.7-6.1,16.2-15.8,16.2
	c-11.3,0-15.8-8.5-15.8-16.2c0-9.7,6.1-16.2,15.8-16.2C68,59.8,73.3,66.7,73.3,76z M48.2,76c0,6.9,3.6,12.1,10.1,12.1
	c4.9,0,9.3-3.2,9.3-11.7c0-6.5-2.8-12.1-9.7-12.1C52.2,63.8,48.2,68.3,48.2,76z M85.4,45.2C85.8,45.2,85.8,45.2,85.4,45.2l0.4,16.2
	c2.8-1.2,5.3-2,8.1-2c8.9,0,14.6,6.5,14.6,15c0,11.3-8.9,17.8-18.6,17.8c-3.6,0-6.1-0.4-9.3-1.6c-0.4,0-0.4-0.4-0.4-0.8V45.2
	c0-0.4,0-0.4,0.4-0.4h4.9C85.4,44.8,85.4,45.2,85.4,45.2z M92.7,64.3c-2.8,0-5.3,0.4-6.9,1.6v21.5c1.6,0.4,3.2,0.4,4.9,0.4
	c5.7,0,12.1-4,12.1-13C102.9,68.3,99.2,64.3,92.7,64.3z M119.9,76.4c0,6.5,3.6,10.9,10.9,10.9c2.8,0,5.3-0.4,8.1-2
	c0.4,0,0.4,0,0.4,0.4v3.6c0,0.4,0,0.4-0.4,0.8c-2.4,1.2-5.3,2-9.3,2c-11.7,0-15.8-8.1-15.8-16.2c0-9.7,5.3-16.2,15-16.2
	c9.3,0,13,7.3,13,12.6c0,2.8-0.4,3.2-0.4,3.6c-1.2,0.4-3.6,0.4-6.9,0.4C134.4,76.4,119.9,76.4,119.9,76.4z M132,73.2
	c3.2,0,4-0.4,4-0.4v-1.2c0-2.4-1.6-7.7-7.7-7.7c-5.3,0-8.1,4-8.5,9.3C119.9,73.2,132,73.2,132,73.2z"/>
</svg>
