<svg version="1.1" xmlns="http://www.w3.org/2000/svg" width="70" height="16"><style>* { fill:rgb(75%, 75%, 75%)!important}[fill="none"], [fill="none"] * { fill: none !important;}[stroke] { stroke: rgb(75%, 75%, 75%)!important;}</style><path d="M12.1 0h7.1v16zM7.1 0H0v16zM9.6 5.9L14.1 16h-3l-1.3-3.2H6.5zM29 9.8l-1.2 3.3c0 .1-.1.1-.1.1h-1.1c-.1 0-.1-.1-.1-.1 1-2.5 2.6-6.9 3.7-9.7.1-.1.1-.3.1-.7 0-.1 0-.1.1-.1H32c.1 0 .1 0 .1.1 1.3 3.4 2.6 7 3.9 10.4 0 .1 0 .1-.1.1h-1.3c-.1 0-.1 0-.1-.1l-1.3-3.4-4.2.1zm3.8-1.2c-.4-1-1.3-3.8-1.7-4.9-.3 1-1.1 3.1-1.6 4.9h3.3zM36.7 9.4c0-2.4 1.8-4.1 4.4-4.1.5 0 .9 0 1.3.2V1.8c0-.1 0-.1.1-.1h1.3c.1 0 .1 0 .1.1V12.5c0 .1 0 .1-.1.2-1 .5-2 .8-3 .8-2.4-.1-4.1-1.5-4.1-4.1zm5.7-2.8c-.3-.2-.8-.2-1.3-.2-1.8 0-2.9 1.2-2.9 2.9 0 2.2 1.3 2.9 2.7 2.9.6 0 1.1-.1 1.4-.2l.1-5.4zM53.1 9.3c0 2.4-1.5 4-3.9 4-2.8 0-3.9-2.1-3.9-4 0-2.4 1.5-4 3.9-4 2.6 0 3.9 1.7 3.9 4zm-6.2 0c0 1.7.9 3 2.5 3 1.2 0 2.3-.8 2.3-2.9 0-1.6-.7-3-2.4-3-1.4-.1-2.4 1-2.4 2.9zM56.1 1.7c.1 0 .1 0 0 0l.1 4c.7-.3 1.3-.5 2-.5 2.2 0 3.6 1.6 3.6 3.7 0 2.8-2.2 4.4-4.6 4.4-.9 0-1.5-.1-2.3-.4-.1 0-.1-.1-.1-.2v-11c0-.1 0-.1.1-.1h1.2v.1zm1.8 4.7c-.7 0-1.3.1-1.7.4v5.3c.4.1.8.1 1.2.1 1.4 0 3-1 3-3.2 0-1.6-.9-2.6-2.5-2.6zM64.6 9.4c0 1.6.9 2.7 2.7 2.7.7 0 1.3-.1 2-.5.1 0 .1 0 .1.1v.9c0 .1 0 .1-.1.2-.6.3-1.3.5-2.3.5-2.9 0-3.9-2-3.9-4 0-2.4 1.3-4 3.7-4 2.3 0 3.2 1.8 3.2 3.1 0 .7-.1.8-.1.9-.3.1-.9.1-1.7.1h-3.6zm3-.8c.8 0 1-.1 1-.1v-.3c0-.6-.4-1.9-1.9-1.9-1.3 0-2 1-2.1 2.3h3z"/></svg>