<?xml version="1.0" encoding="utf-8"?>
<!-- Generator: Adobe Illustrator 19.1.0, SVG Export Plug-In . SVG Version: 6.00 Build 0)  -->
<svg version="1.1" id="Layer_1" xmlns="http://www.w3.org/2000/svg" xmlns:xlink="http://www.w3.org/1999/xlink" x="0px" y="0px"
	 viewBox="0 0 600 99.8" style="enable-background:new 0 0 600 99.8;" xml:space="preserve">
<style type="text/css">
	.st0{fill:#3B3B3B;}
	.st1{fill:#808080;}
</style>
<g>
	<path class="st0" d="M241.9,0.4c5.1-1.6,11,2,11.6,7.3c1,5-3,10.3-8.1,10.7c-4.8,0.6-9.6-3.1-10.1-7.9
		C234.6,6.1,237.6,1.5,241.9,0.4L241.9,0.4z"/>
	<path class="st0" d="M181.5,2.5c3,0,5.9,0,8.9,0c1.9,0,4,0.4,5.4,1.9c1.5,1.6,1.7,4,1.7,6.1c0,10.5,0,21,0,31.5
		c2.1-0.1,5,0.4,6.3-1.7c3.6-5.6,7.2-11.2,10.8-16.7c6,0,12,0,18,0c-4.8,7.2-9.6,14.3-14.4,21.4c-0.9,1.4-1.9,2.6-3,3.8
		c2.2,2.2,3.4,5,4.8,7.7c3.8,7.6,8.5,14.7,12.8,22.1c-4.8-0.1-9.5,0.1-14.3-0.1c-2.8-0.1-5.4-1.6-6.8-4.1
		c-3.2-5.7-6.1-11.6-9.3-17.3c-1-1.8-3.3-1.2-4.9-1.4c0,7.6,0,15.2,0,22.9c-5.3,0-10.7,0-16,0C181.5,53.2,181.5,27.8,181.5,2.5
		L181.5,2.5z"/>
	<path class="st0" d="M277.4,29.6c3.5-4.1,8.6-6.7,14-7.2c5.7-0.5,12,0.3,16.5,4.2c4,3.5,5.6,9,6,14.1c0.2,12.6-0.2,25.2,0.2,37.7
		c-3.1,0-6.3,0.2-9.4-0.1c-2.2-0.2-4.4-1.2-5.6-3.2c-1.3-2.4-1.1-5.2-1.1-7.9c0-7.5,0-15,0-22.5c-0.1-2.8-0.8-6.4-3.9-7.4
		c-4.2-1.1-8.8,0.2-11.9,3.2c-3,3-4.3,7.4-4.5,11.5c0,8.8,0,17.6,0,26.3c-5.3,0-10.6,0-15.9,0c0-18.3,0-36.7,0-55
		c3.8,0.2,7.9-0.6,11.5,0.8C275.7,25.1,276.8,27.4,277.4,29.6L277.4,29.6z"/>
	<path class="st1" d="M407.9,30.9c7.7-7.7,19.8-10.2,30.2-7.4c4,1.1,8.3,3,10.5,6.7c2.2,3.7,1.1,8.2,1.4,12.3
		c-3.1-0.1-6.3,0.1-9.4-0.1c-2.2-0.2-3.7-2.2-4.4-4.1c-0.5-1.5-2.1-2-3.5-2.4c-5.6-1.3-12,1.1-15,6c-3,4.7-3.3,11.1-1,16.1
		c2.3,5,7.7,7.9,13.1,8.1c6.4,0.3,12.4-3.2,16.7-7.8c2.2,3.7,4.4,7.3,6.6,11c-10.8,12.6-32.2,14-44.4,2.7
		C397.2,61.7,396.9,41.8,407.9,30.9L407.9,30.9z"/>
	<path class="st1" d="M532.1,30.4c3.3-3.9,7.8-7,13-7.7c5-0.7,10.6,0.2,14.5,3.6c1.8,1.5,2.9,3.6,4.2,5.5c3.7-5.2,9.5-8.8,15.9-9.3
		c5.7-0.5,12,0.8,15.8,5.3c3.7,4.4,4.5,10.3,4.5,15.9c0,11.6,0,23.2,0,34.8c-4-0.3-8.2,0.7-11.9-1c-2.9-1.4-3.4-4.9-3.3-7.8
		c0-8.5,0-16.9,0-25.4c-0.2-2.6-0.5-6-3.3-7.3c-3.5-1.4-7.6,0-10.2,2.6c-3.4,3.5-4.8,8.4-5.1,13.2c0,8.5,0,17.1,0,25.6
		c-5.1,0.1-10.2,0-15.3,0c0-10.8,0-21.6,0-32.4c-0.1-2.7-0.3-5.7-2.2-7.8c-1.8-2.1-5-2.2-7.5-1.4c-3.5,1.3-5.8,4.5-7.1,7.8
		c-1.6,3.9-1.9,8.1-1.9,12.3c0,7.1,0,14.3,0,21.5c-5,0-10,0-15,0c0-18.3,0-36.6,0-54.8c3.9,0.2,8.1-0.7,11.7,1.2
		C531,26,531.6,28.3,532.1,30.4L532.1,30.4z"/>
	<path class="st0" d="M237.1,23.5c3.9,0.2,7.9-0.6,11.7,0.7c2.8,1,4.2,4,4.2,6.9c0,15.8,0,31.6,0,47.4c-5.2,0-10.5,0-15.7,0
		C237.3,60.1,237.1,41.8,237.1,23.5L237.1,23.5z"/>
	<path class="st0" d="M79.4,23c9.1-1.7,19.1,0.3,26,6.5c11.4,10.1,12.2,29.5,2,40.7c-11,12.2-32.8,12.2-43.6-0.2
		c-10.5-11.8-9-32.4,3.9-41.9C71.2,25.5,75.2,23.8,79.4,23L79.4,23z M81.9,36.4c-3.3,1-6.2,3.5-7.7,6.6c-3.4,7-2.1,17.1,5,21.3
		c5.6,3.3,13.6,1.7,17.1-3.8c3.8-6,3.6-14.6-1-20.2C92.2,36.3,86.7,35,81.9,36.4L81.9,36.4z"/>
	<path class="st0" d="M140.6,23c8-1.5,16.7-0.4,23.5,4.2c5.7,3.7,9.8,9.9,11.3,16.5c2,8.9,0.2,19-5.9,26
		c-10.8,12.5-32.6,12.8-43.7,0.6c-9.9-10.8-9.7-29.5,0.8-39.8C130.3,26.7,135.3,24.2,140.6,23L140.6,23z M143.6,36.3
		c-4.6,1.2-7.9,5.3-9,9.8c-1.6,6.4,0,14.3,5.9,18c4.8,2.9,11.4,2.4,15.5-1.5c3.5-3.2,4.7-8.1,4.5-12.7c-0.2-4.3-1.9-8.8-5.4-11.4
		C151.9,35.9,147.5,35.3,143.6,36.3L143.6,36.3z"/>
	<path class="st1" d="M477.1,22.9c9-1.6,19,0.5,25.8,6.8c11.2,10.2,11.8,29.5,1.7,40.6c-11,12.1-32.5,12.1-43.4-0.1
		c-9.9-11-9.5-29.9,1.4-40.1C466.6,26.3,471.7,23.8,477.1,22.9L477.1,22.9z M479.5,36.2c-3.4,0.9-6.4,3.3-8,6.4
		c-3.2,6.3-2.5,14.9,2.7,19.9c4.8,4.6,13.3,4.3,17.9-0.5c3-3.1,4.2-7.5,4-11.7c0-4.7-2-9.5-5.9-12.3
		C487.2,35.9,483.2,35.4,479.5,36.2L479.5,36.2z"/>
	<path class="st0" d="M333.9,24c8.1-3.2,18.3-2.6,25,3.3c0.9-1.8,2.6-3.4,4.6-3.8c3.2-0.5,6.4-0.2,9.6-0.3c0,16.9,0,33.7,0,50.6
		c0,6.2-1.9,12.5-6.1,17.1c-5.5,6-13.9,8.5-21.8,8.8c-7.4,0.1-14.9-1.7-21.4-5.3c1.3-3.1,2.2-6.3,3.8-9.2c0.8-1.5,2.6-2.3,4.3-2
		c2.6,0.5,5.1,1.6,7.8,1.9c4.7,0.7,10,0.6,14-2.4c3-2.3,3.9-6.3,3.7-9.9c-5,4.2-12,4.9-18.3,3.8c-6.3-1.1-11.9-5.1-15.3-10.5
		c-4.5-7.2-5.4-16.3-3.7-24.5C321.5,34.2,326.5,27,333.9,24L333.9,24z M341.8,36.9c-3.5,1.3-5.5,5-6.1,8.6c-0.8,4.8-0.2,10.1,2.7,14
		c3.8,5.2,12.7,5.4,16.6,0.2c2.6-3.7,2.8-8.5,2.4-12.9c-0.3-3.7-1.8-7.8-5.3-9.5C348.9,35.8,345,35.6,341.8,36.9L341.8,36.9z"/>
	<path class="st0" d="M0,10.5c-0.3-4.3,3.6-8.1,7.9-8c6.4,0,12.9,0,19.3,0c6.4,0.1,13.1,2,17.6,6.7c6.9,7.1,6.5,19.8-0.6,26.7
		c-0.8,0.8-1.7,1.5-2.6,2.2c3.7,1.8,7.1,4.5,8.9,8.3c3.3,6.8,2.9,15.4-1.3,21.7c-4.6,6.9-13.3,9.8-21.3,10c-9.3,0-18.6,0-27.8,0
		C0,55.6,0,33.1,0,10.5L0,10.5z M16.1,16.2c-1.3,1.1-1.4,2.9-1.4,4.5c0,4.1,0,8.2,0,12.3c4,0,8,0.1,11.9,0c2.4,0,4.8-1.1,6.2-3
		c2.9-3.9,2.7-10.4-1.4-13.4c-2.8-2-6.4-1.5-9.7-1.6C19.9,15.1,17.6,14.8,16.1,16.2L16.1,16.2z M16.5,45.6c-1.6,1-1.8,3-1.9,4.7
		c0,5,0,9.9,0,14.9c4.6,0,9.1,0,13.7,0c3.1-0.1,6.3-1.7,7.8-4.5c2.2-4.3,1.8-10.3-2-13.5c-3.1-2.6-7.4-2.3-11.2-2.3
		C20.8,44.9,18.4,44.4,16.5,45.6L16.5,45.6z"/>
	<path class="st1" d="M385.9,61c5.3-1.6,11.3,2.6,11.6,8.1c0.5,4.9-3.4,9.6-8.3,10c-4.8,0.6-9.6-3.2-10-8.1
		C378.5,66.6,381.5,62.1,385.9,61L385.9,61z"/>
</g>
</svg>
