<?xml version="1.0" encoding="utf-8"?>
<!-- Generator: Adobe Illustrator 19.1.0, SVG Export Plug-In . SVG Version: 6.00 Build 0)  -->
<svg version="1.1"
	 id="svg2" xmlns:rdf="http://www.w3.org/1999/02/22-rdf-syntax-ns#" xmlns:svg="http://www.w3.org/2000/svg" xmlns:dc="http://purl.org/dc/elements/1.1/" xmlns:cc="http://creativecommons.org/ns#"
	 xmlns="http://www.w3.org/2000/svg" xmlns:xlink="http://www.w3.org/1999/xlink" x="0px" y="0px" viewBox="429 -93.8 1000 328.6"
	 style="enable-background:new 429 -93.8 1000 328.6;" xml:space="preserve">
<style type="text/css">
	.st0{fill:#7D7D7D;}
	.st1{fill:#747474;}
	.st2{fill:#BBBBBB;}
	.st3{fill:#7C7C7C;}
</style>
<path id="path2998" class="st0" d="M675.1,22.4H558.5v34.6h82.7c-4.1,48.5-44.4,69.2-82.5,69.2c-48.7,0-91.3-38.3-91.3-92.1
	c0-52.4,40.5-92.7,91.4-92.7c39.2,0,62.3,25,62.3,25l24.2-25.1c0,0-31.1-34.6-87.8-34.6c-72.2,0-128,60.9-128,126.8
	c0,64.5,52.5,127.4,129.9,127.4c68,0,117.8-46.6,117.8-115.5C677.2,30.7,675.1,22.3,675.1,22.4L675.1,22.4z"/>
<path id="path3000" class="st1" d="M770.6-2.7c-47.8,0-82.1,37.4-82.1,81c0,44.3,33.2,82.3,82.7,82.3c44.7,0,81.4-34.2,81.4-81.4
	C852.6,25.2,809.9-2.7,770.6-2.7L770.6-2.7z M771.1,29.4c23.5,0,45.8,19,45.8,49.7c0,30-22.2,49.6-45.9,49.6
	c-26.1,0-46.6-20.9-46.6-49.8C724.3,50.5,744.6,29.4,771.1,29.4L771.1,29.4z"/>
<path id="path3005" class="st2" d="M949.2-2.7c-47.8,0-82.1,37.4-82.1,81c0,44.3,33.2,82.3,82.7,82.3c44.7,0,81.4-34.2,81.4-81.4
	C1031.1,25.2,988.5-2.7,949.2-2.7L949.2-2.7z M949.7,29.4c23.5,0,45.8,19,45.8,49.7c0,30-22.2,49.6-45.9,49.6
	c-26.1,0-46.6-20.9-46.6-49.8C902.9,50.5,923.2,29.4,949.7,29.4L949.7,29.4z"/>
<path id="path3007" class="st0" d="M1124.3-2.6c-43.9,0-78.4,38.5-78.4,81.6c0,49.2,40,81.8,77.7,81.8c23.3,0,35.7-9.2,44.8-19.8
	V157c0,28.2-17.1,45.1-42.9,45.1c-24.9,0-37.5-18.6-41.8-29.1l-31.4,13.1c11.1,23.5,33.6,48.1,73.5,48.1c43.7,0,76.9-27.5,76.9-85.2
	V2.3h-34.2v13.8C1157.9,4.8,1143.5-2.6,1124.3-2.6L1124.3-2.6z M1127.5,29.4c21.5,0,43.6,18.4,43.6,49.8c0,31.9-22.1,49.5-44.1,49.5
	c-23.4,0-45.2-19-45.2-49.2C1081.9,48.1,1104.5,29.4,1127.5,29.4L1127.5,29.4z"/>
<path id="path3011" class="st1" d="M1354.9-2.8c-41.4,0-76.2,33-76.2,81.6c0,51.4,38.8,82,80.2,82c34.6,0,55.8-18.9,68.4-35.8
	l-28.2-18.8c-7.3,11.4-19.6,22.5-40,22.5c-23,0-33.5-12.6-40.1-24.8l109.5-45.4l-5.7-13.3C1412.2,19,1387.6-2.8,1354.9-2.8
	L1354.9-2.8z M1356.3,28.6c14.9,0,25.7,7.9,30.2,17.4l-73.1,30.6C1310.2,53,1332.7,28.6,1356.3,28.6L1356.3,28.6z"/>
<path id="path3015" class="st3" d="M1226.5,155.9h36V-84.9h-36V155.9z"/>
</svg>
