<?xml version="1.0" encoding="utf-8"?>
<!-- Generator: Adobe Illustrator 19.1.0, SVG Export Plug-In . SVG Version: 6.00 Build 0)  -->
<svg version="1.1" id="svg5358" xmlns:svg="http://www.w3.org/2000/svg"
	 xmlns="http://www.w3.org/2000/svg" xmlns:xlink="http://www.w3.org/1999/xlink" x="0px" y="0px" viewBox="446 -40 1033.7 220.7"
	 style="enable-background:new 446 -40 1033.7 220.7;" xml:space="preserve">
<style type="text/css">
	.st0{fill:#6E6E6E;}
	.st1{fill:#7B7B7B;}
	.st2{fill:#A3A3A3;}
	.st3{fill:#808080;}
	.st4{fill:#BBBBBB;}
</style>
<path id="path5056" class="st0" d="M1479.7,59.9V41.7h-22.6V13.4l-0.8,0.2l-21.2,6.5l-0.4,0.1v21.4h-33.5V29.8
	c0-5.6,1.2-9.8,3.7-12.6c2.4-2.8,5.9-4.2,10.3-4.2c3.2,0,6.5,0.8,9.8,2.2l0.8,0.4V-3.6l-0.4-0.1c-3.1-1.1-7.3-1.7-12.5-1.7
	c-6.6,0-12.6,1.4-17.8,4.3c-5.2,2.8-9.3,6.9-12.2,12.1c-2.9,5.2-4.3,11.1-4.3,17.7v13.1H1363v18.2h15.7v76.6h22.6V59.9h33.5v48.7
	c0,20,9.5,30.2,28.1,30.2c3.1,0,6.3-0.4,9.6-1.1c3.4-0.7,5.6-1.4,7-2.2l0.3-0.2v-18.3l-0.9,0.6c-1.2,0.8-2.8,1.5-4.5,2
	c-1.8,0.5-3.3,0.8-4.5,0.8c-4.4,0-7.6-1.2-9.6-3.5c-2-2.3-3.1-6.4-3.1-12.2V59.9L1479.7,59.9L1479.7,59.9z M1312.6,120.3
	c-8.2,0-14.6-2.7-19.2-8.1c-4.6-5.4-6.9-13-6.9-22.8c0-10,2.3-17.9,6.9-23.4c4.6-5.4,10.9-8.2,19-8.2c7.8,0,14.1,2.6,18.5,7.8
	c4.5,5.2,6.8,13,6.8,23.2c0,10.3-2.1,18.2-6.4,23.5C1327.2,117.6,1320.9,120.3,1312.6,120.3 M1313.6,39.4c-15.6,0-28,4.6-36.9,13.6
	c-8.8,9-13.3,21.5-13.3,37.2c0,14.8,4.4,26.8,13,35.5c8.6,8.7,20.4,13.1,34.9,13.1c15.1,0,27.3-4.6,36.2-13.8
	c8.8-9.1,13.3-21.5,13.3-36.8c0-15.1-4.2-27.1-12.5-35.7C1340,43.8,1328.4,39.4,1313.6,39.4 M1227,39.4c-10.6,0-19.4,2.7-26.1,8.1
	c-6.8,5.4-10.2,12.5-10.2,21c0,4.4,0.7,8.4,2.2,11.8c1.5,3.4,3.7,6.3,6.7,8.8c3,2.5,7.6,5,13.7,7.7c5.1,2.1,9,3.9,11.4,5.3
	c2.4,1.4,4.1,2.8,5,4.1c0.9,1.3,1.4,3.1,1.4,5.4c0,6.4-4.8,9.5-14.6,9.5c-3.6,0-7.8-0.8-12.3-2.3c-4.6-1.5-8.8-3.6-12.6-6.4
	l-0.9-0.7v21.7l0.3,0.2c3.2,1.5,7.2,2.7,12,3.7c4.7,1,9,1.5,12.8,1.5c11.5,0,20.8-2.7,27.6-8.1c6.8-5.4,10.3-12.7,10.3-21.5
	c0-6.4-1.9-11.9-5.5-16.3c-3.6-4.4-10-8.4-18.8-12c-7-2.8-11.5-5.2-13.4-7c-1.8-1.7-2.7-4.2-2.7-7.3c0-2.8,1.1-5,3.4-6.8
	c2.3-1.8,5.6-2.7,9.6-2.7c3.8,0,7.6,0.6,11.4,1.8c3.8,1.2,7.2,2.7,10,4.6l0.9,0.6V43.5l-0.4-0.2c-2.6-1.1-6-2.1-10.1-2.8
	C1234,39.8,1230.3,39.4,1227,39.4 M1131.9,120.3c-8.2,0-14.6-2.7-19.2-8.1c-4.6-5.4-6.9-13-6.9-22.8c0-10,2.3-17.9,6.9-23.4
	c4.6-5.4,10.9-8.2,19-8.2c7.8,0,14.1,2.6,18.5,7.8c4.5,5.2,6.8,13,6.8,23.2c0,10.3-2.1,18.2-6.4,23.5
	C1146.4,117.6,1140.1,120.3,1131.9,120.3 M1132.9,39.4c-15.6,0-28,4.6-36.9,13.6c-8.8,9-13.3,21.5-13.3,37.2
	c0,14.8,4.4,26.8,13,35.5c8.6,8.7,20.4,13.1,34.9,13.1c15.1,0,27.3-4.6,36.2-13.8c8.8-9.1,13.3-21.5,13.3-36.8
	c0-15.1-4.2-27.1-12.5-35.7C1159.3,43.8,1147.6,39.4,1132.9,39.4 M1048.4,58.1V41.7h-22.3v94.8h22.3V88c0-8.2,1.9-15,5.6-20.1
	c3.6-5.1,8.5-7.6,14.4-7.6c2,0,4.3,0.3,6.7,1c2.4,0.7,4.2,1.4,5.2,2.1l0.9,0.7V41.5l-0.4-0.2c-2.1-0.9-5-1.3-8.7-1.3
	c-5.6,0-10.6,1.8-14.9,5.3c-3.8,3.1-6.5,7.4-8.6,12.7C1048.6,58.1,1048.4,58.1,1048.4,58.1z M986.2,39.4c-10.2,0-19.3,2.2-27.1,6.5
	c-7.8,4.3-13.8,10.5-17.9,18.4c-4.1,7.8-6.1,17-6.1,27.2c0,9,2,17.2,6,24.4c4,7.3,9.6,12.9,16.7,16.9c7.1,3.9,15.3,5.9,24.4,5.9
	c10.6,0,19.6-2.1,26.9-6.3l0.3-0.2v-20.4l-0.9,0.7c-3.3,2.4-7,4.3-10.9,5.7c-3.9,1.4-7.5,2.1-10.7,2.1c-8.7,0-15.8-2.7-20.9-8.1
	c-5.1-5.4-7.7-13-7.7-22.5c0-9.6,2.7-17.4,8-23.1c5.3-5.7,12.3-8.6,20.9-8.6c7.3,0,14.5,2.5,21.2,7.4l0.9,0.7V44.4l-0.3-0.2
	c-2.5-1.4-6-2.6-10.3-3.5C994.4,39.9,990.2,39.4,986.2,39.4 M919.7,41.7h-22.3v94.8h22.3V41.7z M908.8,1.3c-3.7,0-6.9,1.2-9.5,3.7
	c-2.6,2.5-4,5.6-4,9.3c0,3.6,1.3,6.7,3.9,9.1c2.6,2.4,5.8,3.6,9.5,3.6c3.7,0,7-1.2,9.6-3.6c2.6-2.4,4-5.5,4-9.1
	c0-3.6-1.3-6.7-3.9-9.2C915.9,2.6,912.7,1.3,908.8,1.3 M853.2,34.7v101.8h22.8V4.2h-31.5l-40,98.2L765.6,4.2h-32.8v132.2h21.4V34.7
	h0.7l41,101.8h16.1l40.4-101.8L853.2,34.7L853.2,34.7z"/>
<path id="path5058" class="st1" d="M550.9,64.9H446V-40h104.9V64.9z"/>
<path id="path5060" class="st2" d="M666.7,64.9H561.8V-40h104.9V64.9z"/>
<path id="path5062" class="st3" d="M550.9,180.7H446V75.9h104.9V180.7z"/>
<path id="path5064" class="st4" d="M666.7,180.7H561.8V75.9h104.9V180.7z"/>
</svg>
