<?xml version="1.0" encoding="utf-8"?>
<!-- Generator: Adobe Illustrator 19.1.0, SVG Export Plug-In . SVG Version: 6.00 Build 0)  -->
<svg version="1.1" id="Layer_1" xmlns="http://www.w3.org/2000/svg" xmlns:xlink="http://www.w3.org/1999/xlink" x="0px" y="0px"
	 viewBox="0 0 893 232.5" style="enable-background:new 0 0 893 232.5;" xml:space="preserve">
<style type="text/css">
	.st0{fill:#56575C;}
</style>
<g>
	<path class="st0" d="M36.8,66.5c2.7,4.2,3.9,7.9,5.4,15.8C52.8,71.9,65.8,66.5,80,66.5c12.9,0,23.4,4.2,31.6,12.7
		c2.2,2.1,4.3,4.9,6.2,7.6c14.2-14.6,26.9-20.3,44-20.3c12.1,0,23.6,3.6,30.7,9.7c8.8,7.6,11.6,16.7,11.6,37.9v110.4h-39.5V122
		c0-18.6-2.2-22.2-12.8-22.2c-7.6,0-18.2,5.2-27,13.1v111.7H86.3V123.5c0-19.4-2.8-23.9-14.1-23.9c-7.5,0-17.9,3.9-26.6,11.8v113.2
		H5.8V116.2c0-22.4-1.5-32.1-5.8-39.7L36.8,66.5z"/>
	<path class="st0" d="M349.2,89.5c12.4,14.6,18,31.5,18,56.7c0,26.7-6.1,44.9-19.5,60.1c-11.8,13.3-27.3,21.6-51.2,21.6
		c-42.2,0-69.8-31.6-69.8-80.4c0-48.9,27.8-81.3,69.8-81.3C318.6,66.2,335.9,73.8,349.2,89.5z M276.1,112
		c-2.8,8.2-4.3,19.1-4.3,34.6c0,17.9,1.8,31.3,5.1,39.1c3.7,8.5,12.8,12.7,20.6,12.7c17.6,0,25.1-15.8,25.1-52.5
		c0-20.9-2.7-34.6-8.2-41.6c-3.9-5.1-10.2-8.2-17.6-8.2C287.3,96.2,279.4,102.2,276.1,112z"/>
	<path class="st0" d="M498,69.2v27.9l-68.6,99.2h71.3l-9.7,28.2H376.6v-25.2l73-101.6h-66.9V69.2H498z"/>
	<path class="st0" d="M566.7,26.4c0,14-11.1,25.1-25.2,25.1c-13.6,0-24.8-11.2-24.8-25.1c0-13.9,11.6-25.2,25.5-25.2
		C555.9,1.2,566.7,12.5,566.7,26.4z M561.9,65.5v159h-40.6V71.9L561.9,65.5z"/>
	<path class="st0" d="M636,40.4v121c0,26.7,0.3,30.3,2.8,34.6c1.5,2.8,4.8,4.2,8.2,4.2c1.5,0,2.3,0,4.5-0.6l6.9,24.2
		c-6.9,2.7-15.5,4.2-24.3,4.2c-17.3,0-31.3-8.2-36.1-21.2c-3-7.9-3.7-12.8-3.7-34.9V56.1c0-20.3-0.5-32.7-2-46.7L633.9,0
		C635.3,8.5,636,18.5,636,40.4z"/>
	<path class="st0" d="M720.3,40.4v121c0,26.7,0.3,30.3,2.8,34.6c1.4,2.8,4.7,4.2,8.1,4.2c1.5,0,2.5,0,4.6-0.6l6.9,24.2
		c-6.9,2.7-15.4,4.2-24.3,4.2c-17.3,0-31.3-8.2-36.1-21.2c-3.1-7.9-3.6-12.8-3.6-34.9V56.1c0-20.3-0.6-32.7-2.2-46.7L718.1,0
		C719.8,8.5,720.3,18.5,720.3,40.4z"/>
	<path class="st0" d="M784.1,75c15.1-6.4,28.1-9.1,42.4-9.1c26.1,0,44,9.7,50.1,27c2,6.4,2.9,11.2,2.8,27.9l-1,52.2
		c0,0.9,0,1.9,0,2.8c0,16.7,2.8,23.1,14.6,31.8l-21.6,24.9c-9.5-4-18-11-21.9-18.8c-3,3.1-6.4,6-9.4,8.2c-7.5,5.5-18.5,8.5-31.3,8.5
		c-34.6,0-53.4-17.6-53.4-48.5c0-36.5,25.2-53.5,74.7-53.5c3,0,5.8,0,9.1,0.3v-6.3c0-17.3-3.4-23.1-18.3-23.1
		c-12.9,0-28.2,6.3-44.8,17.6l-17.3-29.1C767,82.5,773.1,79.5,784.1,75z M836.8,156.6c-28.1,0-38,5.1-38,23.7
		c0,12.1,7.7,20.3,18,20.3c7.6,0,15.2-4,21.2-10.6l0.7-33.4H836.8z"/>
</g>
</svg>
