<?xml version="1.0" encoding="utf-8"?>
<!-- Generator: Adobe Illustrator 19.1.0, SVG Export Plug-In . SVG Version: 6.00 Build 0)  -->
<svg version="1.1" id="Layer_1" xmlns="http://www.w3.org/2000/svg" xmlns:xlink="http://www.w3.org/1999/xlink" x="0px" y="0px"
	 viewBox="165 -47.3 471 234" style="enable-background:new 165 -47.3 471 234;" xml:space="preserve">
<style type="text/css">
	.st0{fill:#767676;}
</style>
<g>
	<g>
		<path class="st0" d="M524,65.7c9.3-15,22.1-26.6,23-50c-7.8-2.5-20.9,0.2-26-5c3.1-9.2,15.5-9.2,28-9c4.1-11.3,5.3-25.4,15-31
			c9.8,3.6,1.2,20.2,2,30c4.8,2.9,16.2-0.8,21,2c1.2,13.2-8.8,15.2-22,14c-3.1,14.6-2.7,32.7-5,48c10-8.4,17.5-21.9,26-35
			c6.9-10.6,11.1-33.2,29-27c3.1,9.8-5.7,15.3-9,22c4.5,16.8,16.6,51.8,0,63c-7.9,5.3-23.9,2.2-24-9c-0.1-9.2,9.8-10,15-16
			c-1.8-6.2-3.1-12.9-4-20c-10.3,7.1-17.6,35.2-34,37c-10.9,1.2-18.1-7.3-16-24c-9.2,10.5-17.8,47.3-36,27c-0.9-14.5,2.6-24.7,3-38
			c-7.5,3.8-11.7,38.4-24,38c-15.7-0.5-1.3-49.6-3-60c-5.9,0.4-8.5,4.1-13,6c8.2,30.2-14.9,69.7-37,52c-10.2-8.2-5.3-33.5,1-45
			c-3.7-2.3-11.6-0.3-17-1c-3.3,10.3-3.6,24.7-6,37c-2.2,11.1-4.3,25.5-18,25c-4.6-17.9,3.8-39.3,4-59c-2.7-2.6-11.5,0.8-13-3
			c-0.5-9.5,7.6-10.4,15-12c0.9-8.1,1.4-16.6,3-24c-13.5-3.5-39,5-37-14c10.2-3.5,24.8-2.5,38-3c3.8-7.7,1.1-21,9-22
			c8.1-1.1,9.5,11.1,11,21c27.5,0.5,56.5-2.7,82-1c-1.5,32.1-54.7,12.6-83,18c-2.4,6.9-2.6,16-4,24c9.2,3.7,35.2-6.7,38,6
			c10.1-8.2,18.3-18.4,36-19c9.9,4.7,8.6,22.1,6,34c7.5-3.1,7.6-23.7,18-25C535.5,15.2,526.1,51,524,65.7z M449,71.7
			c7.2-4.5,5.4-23.2,4-33C449.8,46.4,439.3,63.9,449,71.7z"/>
		<path class="st0" d="M338,29.7c-11.9,14.1-15.1,36.9-29,49c-22.7-12.7-2.4-55-5-78c-11.2,22.8-14.7,53.3-28,74
			c-28.9-2-12.6-46.6-16-72c-6.3,13.5-9,27.8-12,42c-3.2,15.2-4.4,39.3-15,50c-18.9,19.1-79.1-1.5-61-30c8.1-12.8,43.6-7.8,44,10
			c-7.4,4.5-22.3-3.1-31,2c9,9.7,22.9,17.4,35,13c12.5-4.6,14.9-37.3,19-56c3-13.6,7.9-51.6,22-53c22.9-2.2,17.1,41.8,16,62
			c3.5-10.5,8.1-21.5,12-34c4.3-13.7,8-43.5,26-29c13.2,10.7,3.2,45,2,64c10.1-7.7,9.2-32.7,22-35c22.1-4,15.1,33.3,10,49
			c8.3-5.8,6.8-24.5,18-25c7.4-0.3,11.1,10.4,12,18c7.3,59.2-26.4,124.9-73,130c-13.4,1.5-34.7,2.2-36-17c9.9-0.8,16.2,5,27,5
			c51.6,0.1,62.8-65.9,68-116c-7.8,1.2-11.1,33.8-22,35C323.6,89.9,335.1,44.3,338,29.7z"/>
	</g>
</g>
</svg>
