<?xml version="1.0" encoding="utf-8"?>
<!-- Generator: Adobe Illustrator 19.1.0, SVG Export Plug-In . SVG Version: 6.00 Build 0)  -->
<svg version="1.1" id="svg14712" xmlns:svg="http://www.w3.org/2000/svg"
	 xmlns="http://www.w3.org/2000/svg" xmlns:xlink="http://www.w3.org/1999/xlink" x="0px" y="0px" viewBox="441 -65.3 1024 271"
	 style="enable-background:new 441 -65.3 1024 271;" xml:space="preserve">
<style type="text/css">
	.st0{fill:#2B2B2B;}
	.st1{fill:#2A2A2A;}
	.st2{fill:#747474;}
	.st3{fill:#1F1F1F;}
</style>
<path id="path14499" class="st0" d="M632.1-39.7C620.3-53.2,598.9-59,571.5-59h-79.5c-5.6,0-10.4,4.1-11.2,9.6l-33.1,209.8
	c-0.7,4.1,2.5,7.9,6.7,7.9h49.1l12.3-78.1l-0.4,2.4c0.9-5.5,5.6-9.6,11.2-9.6H550c45.8,0,81.6-18.6,92.1-72.4
	c0.3-1.6,0.6-3.1,0.8-4.7c-1.3-0.7-1.3-0.7,0,0C646-13.9,642.9-27.4,632.1-39.7"/>
<path id="path14519" class="st1" d="M1138.9,59.5h-26.4c-2.5,0-4.9,1.3-6.3,3.3l-36.4,53.6L1054.4,65c-1-3.2-3.9-5.4-7.3-5.4h-25.9
	c-3.1,0-5.3,3.1-4.3,6l29.1,85.3l-27.3,38.6c-2.1,3,0,7.2,3.7,7.2h26.4c2.5,0,4.8-1.2,6.3-3.3l87.8-126.7
	C1144.8,63.7,1142.6,59.5,1138.9,59.5 M962.4,110.7c-2.5,15-14.4,25.1-29.6,25.1c-7.6,0-13.7-2.5-17.6-7.1
	c-3.9-4.6-5.3-11.2-4.1-18.4c2.4-14.9,14.5-25.3,29.4-25.3c7.5,0,13.5,2.5,17.5,7.2C962,96.8,963.6,103.4,962.4,110.7 M999,59.5
	h-26.3c-2.2,0-4.2,1.6-4.5,3.9l-1.2,7.3l-1.8-2.7c-5.7-8.3-18.4-11-31-11c-29,0-53.8,22-58.6,52.8c-2.5,15.4,1.1,30.1,9.8,40.4
	c8,9.4,19.4,13.4,33.1,13.4c23.4,0,36.4-15,36.4-15l-1.2,7.3c-0.4,2.8,1.7,5.3,4.5,5.3h23.6c3.8,0,6.9-2.7,7.5-6.4l14.2-89.9
	C1004,62,1001.8,59.5,999,59.5 M841.4,60.2c-3,19.7-18,19.7-32.6,19.7h-8.3l5.8-36.8c0.3-2.2,2.3-3.9,4.5-3.9h3.8
	c9.9,0,19.2,0,24.1,5.6C841.6,48.2,842.5,53.3,841.4,60.2 M835.1,8.8h-54.8c-3.8,0-6.9,2.7-7.5,6.4l-22.2,140.6
	c-0.4,2.8,1.7,5.3,4.5,5.3h26.2c3.7,0,6.9-2.7,7.5-6.4l6-37.9c0.6-3.7,3.8-6.4,7.5-6.4h17.4c36.1,0,57-17.5,62.4-52.1
	c2.5-15.1,0.1-27.1-7-35.4C867.3,13.6,853.4,8.8,835.1,8.8"/>
<path id="path14523" class="st2" d="M1421.2,12.7l-22.5,143.2c-0.4,2.8,1.7,5.3,4.5,5.3h22.6c3.7,0,6.9-2.7,7.5-6.4l22.2-140.6
	c0.4-2.8-1.7-5.3-4.5-5.3h-25.3C1423.5,8.8,1421.5,10.4,1421.2,12.7 M1353.6,110.7c-2.5,15-14.4,25.1-29.6,25.1
	c-7.6,0-13.7-2.5-17.6-7.1c-3.9-4.6-5.3-11.2-4.1-18.4c2.4-14.9,14.5-25.3,29.4-25.3c7.5,0,13.5,2.5,17.5,7.2
	C1353.2,96.8,1354.8,103.4,1353.6,110.7 M1390.2,59.5H1364c-2.2,0-4.2,1.6-4.5,3.9l-1.2,7.3l-1.8-2.7c-5.7-8.3-18.4-11-31-11
	c-29,0-53.8,22-58.6,52.8c-2.5,15.4,1.1,30.1,9.8,40.4c8,9.4,19.4,13.4,33.1,13.4c23.4,0,36.4-15,36.4-15l-1.2,7.3
	c-0.4,2.8,1.7,5.3,4.5,5.3h23.6c3.8,0,6.9-2.7,7.5-6.4l14.2-89.9C1395.2,62,1393,59.5,1390.2,59.5 M1232.6,60.2
	c-3,19.7-18,19.7-32.6,19.7h-8.3l5.8-36.8c0.3-2.2,2.3-3.9,4.5-3.9h3.8c9.9,0,19.2,0,24.1,5.6C1232.8,48.2,1233.7,53.3,1232.6,60.2
	 M1226.3,8.8h-54.8c-3.8,0-6.9,2.7-7.5,6.4l-22.2,140.6c-0.4,2.8,1.7,5.3,4.5,5.3h28.1c2.6,0,4.9-1.9,5.3-4.5l6.3-39.9
	c0.6-3.7,3.8-6.4,7.5-6.4h17.4c36.1,0,57-17.5,62.4-52.1c2.5-15.1,0.1-27.1-7-35.4C1258.5,13.6,1244.6,8.8,1226.3,8.8"/>
<path id="path14527" class="st0" d="M632.1-39.7C620.3-53.2,598.9-59,571.5-59h-79.5c-5.6,0-10.4,4.1-11.2,9.6l-33.1,209.8
	c-0.7,4.1,2.5,7.9,6.7,7.9h49.1l12.3-78.1l-0.4,2.4c0.9-5.5,5.6-9.6,11.2-9.6H550c45.8,0,81.6-18.6,92.1-72.4
	c0.3-1.6,0.6-3.1,0.8-4.7c-1.3-0.7-1.3-0.7,0,0C646-13.9,642.9-27.4,632.1-39.7"/>
<path id="path14531" class="st1" d="M529.1,6.3c0.5-3.3,2.7-6,5.5-7.4c1.3-0.6,2.8-1,4.3-1h62.3c7.4,0,14.3,0.5,20.5,1.5
	c1.8,0.3,3.6,0.6,5.2,1c1.7,0.4,3.3,0.8,4.9,1.3c0.8,0.2,1.6,0.5,2.4,0.7c3.1,1,6,2.2,8.6,3.6c3.1-19.9,0-33.4-10.8-45.7
	C620.3-53.2,598.9-59,571.5-59h-79.5c-5.6,0-10.4,4.1-11.2,9.6l-33.1,209.8c-0.7,4.1,2.5,7.9,6.7,7.9h49.1l12.3-78.1L529.1,6.3
	L529.1,6.3z"/>
<path id="path14535" class="st2" d="M642.9,6L642.9,6c-0.2,1.5-0.5,3.1-0.8,4.7c-10.5,53.8-46.3,72.4-92.1,72.4h-23.3
	c-5.6,0-10.3,4.1-11.2,9.6l-11.9,75.7l-3.4,21.5c-0.6,3.6,2.2,6.9,5.9,6.9h41.3c4.9,0,9.1-3.6,9.8-8.4l0.4-2.1l7.8-49.4l0.5-2.7
	c0.8-4.8,4.9-8.4,9.8-8.4h6.2c40.1,0,71.4-16.3,80.6-63.3c3.8-19.7,1.8-36.1-8.3-47.6C651.2,11.2,647.4,8.4,642.9,6"/>
<path id="path14539" class="st3" d="M632,1.6c-1.6-0.5-3.2-0.9-4.9-1.3c-1.7-0.4-3.5-0.7-5.2-1c-6.3-1-13.2-1.5-20.6-1.5h-62.3
	c-1.5,0-3,0.3-4.3,1c-2.9,1.4-5,4.1-5.5,7.4l-13.2,83.9l-0.4,2.4c0.9-5.5,5.6-9.6,11.2-9.6H550c45.8,0,81.6-18.6,92.1-72.4
	c0.3-1.6,0.6-3.1,0.8-4.7c-2.7-1.4-5.5-2.6-8.6-3.6C633.5,2.1,632.8,1.9,632,1.6"/>
</svg>
