<?xml version="1.0" encoding="utf-8"?>
<!-- Generator: Adobe Illustrator 19.1.0, SVG Export Plug-In . SVG Version: 6.00 Build 0)  -->
<svg version="1.1"
	 id="svg3362" inkscape:version="0.48.4 r9939" sodipodi:docname="Deutsche_Telekom.svg" xmlns:cc="http://creativecommons.org/ns#" xmlns:rdf="http://www.w3.org/1999/02/22-rdf-syntax-ns#" xmlns:dc="http://purl.org/dc/elements/1.1/" xmlns:svg="http://www.w3.org/2000/svg" xmlns:inkscape="http://www.inkscape.org/namespaces/inkscape" xmlns:sodipodi="http://sodipodi.sourceforge.net/DTD/sodipodi-0.dtd"
	 xmlns="http://www.w3.org/2000/svg" xmlns:xlink="http://www.w3.org/1999/xlink" x="0px" y="0px" viewBox="145.9 -0.3 289 141.9"
	 style="enable-background:new 145.9 -0.3 289 141.9;" xml:space="preserve">
<style type="text/css">
	.st0{fill:#515151;}
</style>
<sodipodi:namedview  inkscape:window-height="480" gridtolerance="10" fit-margin-top="0" pagecolor="#ffffff" bordercolor="#666666" inkscape:zoom="0.46311557" guidetolerance="10" borderopacity="1" id="namedview2997" fit-margin-left="0" inkscape:cx="-114.95727" objecttolerance="10" inkscape:cy="70.932062" showgrid="false" fit-margin-right="0" inkscape:window-maximized="0" fit-margin-bottom="0" inkscape:window-y="0" inkscape:window-width="640" inkscape:pageshadow="2" inkscape:window-x="0" inkscape:pageopacity="0" inkscape:current-layer="layer1">
	</sodipodi:namedview>
<g id="layer1" transform="translate(-449.88641,-505.46578)">
	
		<path id="path108" inkscape:connector-curvature="0" sodipodi:nodetypes="cccccccccccccccsccccccccscccccccccccsccccc" class="st0" d="
		M856,570.4h28.8v28.8H856V570.4z M769.5,570.4h28.8v28.8h-28.8V570.4z M683,570.4h28.8v28.8H683V570.4z M664.7,616.7
		c0,9.1,1.3,15.1,4,17.8c2.3,2.3,6.1,3.8,11.5,4.3c1.6,0.1,4.4,0.2,8.2,0.2v8H619v-8c5.6,0,9.7-0.3,12.3-0.8
		c5.4-1.1,8.8-4.3,10.2-9.4c0.7-2.7,1.1-6.7,1.1-12.1V511.9c-11.8,0.3-21,4.2-27.7,11.7c-6.3,7.2-10.2,18.1-11.6,32.9l-7.5-1.3
		l1.4-50.1h112.9l1.4,50.1l-7.5,1.3c-1.4-14.8-5.3-25.7-11.6-32.9c-6.7-7.5-15.9-11.4-27.8-11.7L664.7,616.7L664.7,616.7z
		 M596,570.4h28.8v28.8H596V570.4z"/>
</g>
</svg>
