<?xml version="1.0" encoding="utf-8"?>
<!-- Generator: Adobe Illustrator 19.1.0, SVG Export Plug-In . SVG Version: 6.00 Build 0)  -->
<svg version="1.1"
	 id="svg3362" sodipodi:docname="Deutsche_Telekom.svg" inkscape:version="0.48.4 r9939" xmlns:inkscape="http://www.inkscape.org/namespaces/inkscape" xmlns:sodipodi="http://sodipodi.sourceforge.net/DTD/sodipodi-0.dtd" xmlns:rdf="http://www.w3.org/1999/02/22-rdf-syntax-ns#" xmlns:svg="http://www.w3.org/2000/svg" xmlns:dc="http://purl.org/dc/elements/1.1/" xmlns:cc="http://creativecommons.org/ns#"
	 xmlns="http://www.w3.org/2000/svg" xmlns:xlink="http://www.w3.org/1999/xlink" x="0px" y="0px" viewBox="73 -0.1 288.9 141.9"
	 style="enable-background:new 73 -0.1 288.9 141.9;" xml:space="preserve">
<style type="text/css">
	.st0{fill:#515151;}
</style>
<sodipodi:namedview  bordercolor="#666666" fit-margin-top="0" pagecolor="#ffffff" gridtolerance="10" inkscape:cx="-114.95727" borderopacity="1" fit-margin-left="0" guidetolerance="10" inkscape:zoom="0.46311557" inkscape:cy="70.932062" objecttolerance="10" showgrid="false" id="namedview2997" inkscape:window-height="480" inkscape:current-layer="layer1" inkscape:pageopacity="0" inkscape:window-x="0" inkscape:pageshadow="2" inkscape:window-width="640" inkscape:window-y="0" fit-margin-bottom="0" inkscape:window-maximized="0" fit-margin-right="0">
	</sodipodi:namedview>
<g id="layer1" transform="translate(-449.88641,-505.46578)">
	
		<path id="path108" sodipodi:nodetypes="cccccccccccccccsccccccccscccccccccccsccccc" inkscape:connector-curvature="0" class="st0" d="
		M783,570.6h28.8v28.8H783V570.6z M696.5,570.6h28.8v28.8h-28.8V570.6z M610,570.6h28.8v28.8H610V570.6z M591.7,616.9
		c0,9.1,1.3,15.1,4,17.8c2.3,2.3,6.1,3.8,11.5,4.3c1.6,0.1,4.4,0.2,8.2,0.2v8H546v-8c5.6,0,9.7-0.3,12.3-0.8
		c5.4-1.1,8.8-4.3,10.2-9.4c0.7-2.7,1.1-6.7,1.1-12.1V512.1c-11.8,0.3-21,4.2-27.7,11.7c-6.3,7.2-10.2,18.1-11.6,32.9l-7.5-1.3
		l1.4-50.1h112.9l1.4,50.1l-7.5,1.3c-1.4-14.8-5.3-25.7-11.6-32.9c-6.7-7.5-15.9-11.4-27.8-11.7V616.9L591.7,616.9z M523,570.6h28.8
		v28.8H523V570.6z"/>
</g>
</svg>
